<svg xmlns="http://www.w3.org/2000/svg" width="13.131" height="13.135" viewBox="0 0 13.131 13.135">
  <g id="Group_150" data-name="Group 150" opacity="0.75">
    <g id="Group_148" data-name="Group 148">
      <path id="Path_3015" data-name="Path 3015" d="M127.025,71.347a5.715,5.715,0,1,1,5.716-5.715A5.722,5.722,0,0,1,127.025,71.347Zm0-10.074a4.358,4.358,0,1,0,4.358,4.358A4.37,4.37,0,0,0,127.025,61.273Z" transform="translate(-121.31 -59.916)" fill="#222221"/>
    </g>
    <g id="Group_149" data-name="Group 149" transform="translate(8.585 8.588)">
      <path id="Path_3016" data-name="Path 3016" d="M125.736,65.032a.7.7,0,0,1-.483-.211l-3.182-3.167a.7.7,0,0,1,0-.965.692.692,0,0,1,.98,0l3.182,3.167a.7.7,0,0,1,0,.965A.709.709,0,0,1,125.736,65.032Z" transform="translate(-121.879 -60.485)" fill="#222221"/>
    </g>
  </g>
</svg>
